<?xml version="1.0" encoding="UTF-8" standalone="no"?>
<!-- Created with Inkscape (http://www.inkscape.org/) -->

<svg
   width="253.67892mm"
   height="13.291051mm"
   viewBox="0 0 253.67893 13.291051"
   version="1.1"
   id="svg1"
   inkscape:version="1.4.2 (f4327f4, 2025-05-13)"
   sodipodi:docname="DTRL Letterhead - Single Line.svg"
   xmlns:inkscape="http://www.inkscape.org/namespaces/inkscape"
   xmlns:sodipodi="http://sodipodi.sourceforge.net/DTD/sodipodi-0.dtd"
   xmlns="http://www.w3.org/2000/svg"
   xmlns:svg="http://www.w3.org/2000/svg"
   xmlns:rdf="http://www.w3.org/1999/02/22-rdf-syntax-ns#"
   xmlns:cc="http://creativecommons.org/ns#"
   xmlns:dc="http://purl.org/dc/elements/1.1/">
  <title
     id="title8">Letterhead with WAL in R</title>
  <sodipodi:namedview
     id="namedview1"
     pagecolor="#ffffff"
     bordercolor="#666666"
     borderopacity="1.0"
     inkscape:showpageshadow="2"
     inkscape:pageopacity="0.0"
     inkscape:pagecheckerboard="0"
     inkscape:deskcolor="#d1d1d1"
     inkscape:document-units="mm"
     inkscape:zoom="1.0343421"
     inkscape:cx="535.60616"
     inkscape:cy="125.20036"
     inkscape:window-width="1920"
     inkscape:window-height="1009"
     inkscape:window-x="-8"
     inkscape:window-y="-8"
     inkscape:window-maximized="1"
     inkscape:current-layer="layer1" />
  <defs
     id="defs1">
    <rect
       x="75.199249"
       y="71.097473"
       width="633.04095"
       height="281.65536"
       id="rect3" />
    <rect
       x="105.27895"
       y="72.464729"
       width="616.63385"
       height="319.93863"
       id="rect2" />
    <rect
       x="75.199249"
       y="77.933769"
       width="541.43457"
       height="150.39848"
       id="rect1" />
  </defs>
  <g
     inkscape:label="Layer 1"
     inkscape:groupmode="layer"
     id="layer1"
     transform="translate(-41.607634,-162.40575)">
    <path
       style="font-weight:bold;font-size:64px;line-height:1.25;font-family:Arial;-inkscape-font-specification:'Arial, Bold';letter-spacing:0px;word-spacing:0px;baseline-shift:baseline;white-space:pre;stroke:#000000;stroke-width:1.00157"
       d="m 79.824219,119.46853 h 16.90625 q 5.718751,0 8.718751,0.875 4.03125,1.1875 6.90625,4.21875 2.875,3.03125 4.375,7.4375 1.5,4.375 1.5,10.8125 0,5.65625 -1.40625,9.75 -1.71875,5 -4.90625,8.09375 -2.40625,2.34375 -6.5,3.65625 -3.0625,0.96875 -8.187501,0.96875 h -17.40625 z m 9.25,7.75 v 30.34375 h 6.90625 q 3.875,0 5.593751,-0.4375 2.25,-0.5625 3.71875,-1.90625 1.5,-1.34375 2.4375,-4.40625 0.9375,-3.09375 0.9375,-8.40625 0,-5.3125 -0.9375,-8.15625 -0.9375,-2.84375 -2.625,-4.4375 -1.6875,-1.59375 -4.28125,-2.15625 -1.937501,-0.4375 -7.593751,-0.4375 z m 36.718751,38.0625 v -45.8125 h 9.25 v 45.8125 z m 29.75,0 -16.375,-45.8125 h 10.03125 l 11.59375,33.90625 11.21875,-33.90625 h 9.8125 l -16.40625,45.8125 z m 31,0 v -45.8125 h 33.96875 v 7.75 h -24.71875 v 10.15625 h 23 v 7.71875 h -23 v 12.46875 h 25.59375 v 7.71875 z m 42.71875,0 v -45.8125 h 19.46875 q 7.34375,0 10.65625,1.25 3.34375,1.21875 5.34375,4.375 2,3.15625 2,7.21875 0,5.15625 -3.03125,8.53125 -3.03125,3.34375 -9.0625,4.21875 3,1.75 4.9375,3.84375 1.96875,2.09375 5.28125,7.4375 l 5.59375,8.9375 h -11.0625 l -6.6875,-9.96875 q -3.5625,-5.34375 -4.875,-6.71875 -1.3125,-1.40625 -2.78125,-1.90625 -1.46875,-0.53125 -4.65625,-0.53125 h -1.875 v 19.125 z m 9.25,-26.4375 h 6.84375 q 6.65625,0 8.3125,-0.5625 1.65625,-0.5625 2.59375,-1.9375 0.9375,-1.375 0.9375,-3.4375 0,-2.3125 -1.25,-3.71875 -1.21875,-1.4375 -3.46875,-1.8125 -1.125,-0.15625 -6.75,-0.15625 h -7.21875 z m 34.59375,11.53125 9,-0.875 q 0.8125,4.53125 3.28125,6.65625 2.5,2.125 6.71875,2.125 4.46875,0 6.71875,-1.875 2.28125,-1.90625 2.28125,-4.4375 0,-1.625 -0.96875,-2.75 -0.9375,-1.15625 -3.3125,-2 -1.625,-0.5625 -7.40625,-2 -7.4375,-1.84375 -10.4375,-4.53125 -4.21875,-3.78125 -4.21875,-9.21875 0,-3.5 1.96875,-6.53125 2,-3.0625 5.71875,-4.65625 3.75,-1.59375 9.03125,-1.59375 8.625,0 12.96875,3.78125 4.375,3.78125 4.59375,10.09375 l -9.25,0.40625 q -0.59375,-3.53125 -2.5625,-5.0625 -1.9375,-1.5625 -5.84375,-1.5625 -4.03125,0 -6.3125,1.65625 -1.46875,1.0625 -1.46875,2.84375 0,1.625 1.375,2.78125 1.75,1.46875 8.5,3.0625 6.75,1.59375 9.96875,3.3125 3.25,1.6875 5.0625,4.65625 1.84375,2.9375 1.84375,7.28125 0,3.9375 -2.1875,7.375 -2.1875,3.4375 -6.1875,5.125 -4,1.65625 -9.96875,1.65625 -8.6875,0 -13.34375,-4 -4.65625,-4.03125 -5.5625,-11.71875 z m 45.03125,14.90625 v -45.8125 h 33.96875 v 7.75 h -24.71875 v 10.15625 h 23 v 7.71875 h -23 v 12.46875 h 25.59375 v 7.71875 z m 53,0 v -38.0625 h -13.59375 v -7.75 h 36.40625 v 7.75 h -13.5625 v 38.0625 z m 28.78125,0 v -45.8125 h 33.96875 v 7.75 h -24.71875 v 10.15625 h 23 v 7.71875 h -23 v 12.46875 h 25.59375 v 7.71875 z m 72,-16.84375 8.96875,2.84375 q -2.0625,7.5 -6.875,11.15625 -4.78125,3.625 -12.15625,3.625 -9.125,0 -15,-6.21875 -5.875,-6.25 -5.875,-17.0625 0,-11.4375 5.90625,-17.75 5.90625,-6.34375 15.53125,-6.34375 8.40625,0 13.65625,4.96875 3.125,2.9375 4.6875,8.4375 l -9.15625,2.1875 q -0.8125,-3.5625 -3.40625,-5.625 -2.5625,-2.0625 -6.25,-2.0625 -5.09375,0 -8.28125,3.65625 -3.15625,3.65625 -3.15625,11.84375 0,8.6875 3.125,12.375 3.125,3.6875 8.125,3.6875 3.6875,0 6.34375,-2.34375 2.65625,-2.34375 3.8125,-7.375 z m 16.9375,16.84375 v -45.8125 h 9.25 v 18.03125 h 18.125 v -18.03125 h 9.25 v 45.8125 h -9.25 v -20.03125 h -18.125 v 20.03125 z"
       id="text5"
       inkscape:label="DiverseTech"
       transform="matrix(0.26458333,0,0,0.26458333,20.619976,131.31669)"
       aria-label="DIVERSETECH" />
    <path
       style="font-weight:bold;font-size:53.3333px;line-height:1.25;font-family:Arial;-inkscape-font-specification:'Arial, Bold';letter-spacing:0px;word-spacing:0px;baseline-shift:baseline;white-space:pre;shape-padding:6.8363;stroke:#000000;stroke-width:0.328131"
       d="m 167.33083,175.31063 v -12.52708 h 5.32358 q 2.0081,0 2.91388,0.3418 0.91432,0.33325 1.46121,1.1963 0.54688,0.86306 0.54688,1.97393 0,1.40993 -0.82888,2.3328 -0.82887,0.91433 -2.47806,1.15358 0.82033,0.47853 1.35012,1.05106 0.53834,0.57251 1.44412,2.03372 l 1.52956,2.44389 h -3.02495 l -1.82865,-2.72588 q -0.97415,-1.46121 -1.33303,-1.8372 -0.3589,-0.38451 -0.76052,-0.52124 -0.40162,-0.14527 -1.27322,-0.14527 h -0.5127 v 5.22959 z m 2.52934,-7.22913 h 1.87137 q 1.8201,0 2.27299,-0.15382 0.45289,-0.15381 0.70925,-0.52979 0.25635,-0.37599 0.25635,-0.93996 0,-0.63233 -0.3418,-1.01686 -0.33326,-0.39308 -0.9485,-0.49562 -0.30763,-0.0428 -1.84574,-0.0428 h -1.97392 z m 9.58758,1.0425 q 0,-1.9141 0.57253,-3.21295 0.42724,-0.95705 1.16212,-1.71757 0.74343,-0.76051 1.62356,-1.12794 1.17068,-0.49562 2.70026,-0.49562 2.76859,0 4.42634,1.71756 1.6663,1.71756 1.6663,4.7767 0,3.0335 -1.64921,4.75106 -1.64919,1.70902 -4.40926,1.70902 -2.79424,0 -4.44343,-1.70047 -1.64921,-1.70902 -1.64921,-4.69979 z m 2.60625,-0.0855 q 0,2.12771 0.98269,3.23004 0.98268,1.09376 2.49515,1.09376 1.51249,0 2.47808,-1.08522 0.97414,-1.09378 0.97414,-3.27276 0,-2.15337 -0.9485,-3.21295 -0.93996,-1.0596 -2.50372,-1.0596 -1.56374,0 -2.52079,1.07669 -0.95705,1.06813 -0.95705,3.23004 z m 11.52731,-6.255 h 5.00742 q 1.48684,0 2.21318,0.12817 0.73488,0.11968 1.3074,0.5127 0.58106,0.39308 0.96559,1.05105 0.38453,0.64943 0.38453,1.46121 0,0.88015 -0.47852,1.61503 -0.46998,0.73487 -1.28177,1.10231 1.14504,0.33325 1.76029,1.13649 0.61524,0.80324 0.61524,1.88846 0,0.85451 -0.40162,1.66629 -0.39307,0.80324 -1.08522,1.29031 -0.68361,0.47853 -1.69193,0.58961 -0.63233,0.0683 -3.0506,0.0855 h -4.26399 z m 2.52935,2.085 v 2.89678 h 1.65774 q 1.4783,0 1.83719,-0.0428 0.64944,-0.0769 1.01688,-0.44434 0.37597,-0.37599 0.37597,-0.98269 0,-0.58107 -0.3247,-0.93995 -0.31618,-0.36744 -0.94851,-0.44435 -0.37598,-0.0428 -2.16191,-0.0428 z m 0,4.98177 V 173.2 h 2.34135 q 1.36722,0 1.73464,-0.0769 0.56399,-0.10256 0.91434,-0.49561 0.35888,-0.40162 0.35888,-1.06815 0,-0.56397 -0.27343,-0.95705 -0.27345,-0.39307 -0.7947,-0.57251 -0.5127,-0.17946 -2.23881,-0.17946 z m 9.58758,-0.72632 q 0,-1.9141 0.57252,-3.21295 0.42725,-0.95705 1.16212,-1.71757 0.74343,-0.76051 1.62357,-1.12794 1.17067,-0.49562 2.70025,-0.49562 2.76861,0 4.42636,1.71756 1.66628,1.71756 1.66628,4.7767 0,3.0335 -1.64919,4.75106 -1.64921,1.70902 -4.40927,1.70902 -2.79424,0 -4.44344,-1.70047 -1.6492,-1.70902 -1.6492,-4.69979 z m 2.60624,-0.0855 q 0,2.12771 0.98269,3.23004 0.98269,1.09376 2.49517,1.09376 1.51247,0 2.47806,-1.08522 0.97414,-1.09378 0.97414,-3.27276 0,-2.15337 -0.9485,-3.21295 -0.93996,-1.0596 -2.5037,-1.0596 -1.56376,0 -2.52081,1.07669 -0.95705,1.06813 -0.95705,3.23004 z m 14.33866,6.27208 v -10.40791 h -3.71711 v -2.11917 h 9.95501 v 2.11917 h -3.70857 v 10.40791 z m 7.79311,0 v -12.52708 h 2.52933 v 12.52708 z m 12.95433,-4.6058 2.45245,0.77761 q -0.56398,2.05081 -1.87993,3.05059 -1.30738,0.99123 -3.32403,0.99123 -2.49516,0 -4.10164,-1.70047 -1.60647,-1.70902 -1.60647,-4.66561 0,-3.12751 1.61502,-4.85361 1.61502,-1.73465 4.24691,-1.73465 2.29862,0 3.7342,1.35867 0.85451,0.80323 1.28176,2.30716 l -2.50371,0.59816 q -0.22217,-0.97413 -0.93142,-1.53812 -0.70069,-0.56397 -1.70902,-0.56397 -1.39284,0 -2.26444,0.99978 -0.86306,0.99978 -0.86306,3.23858 0,2.37554 0.85451,3.38386 0.85451,1.00831 2.22172,1.00831 1.00832,0 1.73466,-0.64087 0.72634,-0.64089 1.04249,-2.01665 z m 3.98202,0.52981 2.46097,-0.23927 q 0.22218,1.23904 0.89724,1.8201 0.68361,0.58106 1.83719,0.58106 1.22195,0 1.83719,-0.5127 0.62379,-0.52125 0.62379,-1.21341 0,-0.44433 -0.26489,-0.75196 -0.25636,-0.31617 -0.90578,-0.54688 -0.44435,-0.15382 -2.02518,-0.54689 -2.03374,-0.50416 -2.85407,-1.23903 -1.15358,-1.03395 -1.15358,-2.52081 0,-0.95704 0.53834,-1.78592 0.54689,-0.83742 1.56375,-1.27322 1.02542,-0.43579 2.46953,-0.43579 2.35844,0 3.54621,1.03396 1.19631,1.03395 1.25612,2.76006 l -2.52934,0.11112 q -0.16236,-0.9656 -0.7007,-1.38431 -0.52979,-0.42725 -1.59792,-0.42725 -1.10232,0 -1.72611,0.45289 -0.40162,0.29054 -0.40162,0.7776 0,0.44435 0.37598,0.76051 0.47853,0.40162 2.32426,0.83742 1.84574,0.4358 2.72589,0.90578 0.88868,0.46143 1.3843,1.27322 0.50416,0.80324 0.50416,1.991 0,1.07668 -0.59815,2.01664 -0.59817,0.93996 -1.69193,1.40139 -1.09377,0.45289 -2.72589,0.45289 -2.37553,0 -3.64874,-1.09376 -1.27322,-1.10233 -1.52102,-3.20441 z m 17.24397,4.07599 v -12.42455 h 2.52934 V 173.2 h 6.28918 v 2.11063 z m 12.14255,0 v -10.40791 h -3.71711 v -2.11917 h 9.95502 v 2.11917 h -3.70856 v 10.40791 z m 7.86147,-12.52708 h 4.62289 q 1.56376,0 2.38407,0.23926 1.10233,0.32471 1.88848,1.15358 0.78614,0.82888 1.1963,2.03374 0.41017,1.1963 0.41017,2.95659 0,1.54665 -0.38453,2.66607 -0.46998,1.36721 -1.34158,2.21317 -0.65797,0.64088 -1.77738,0.99978 -0.83741,0.26489 -2.2388,0.26489 h -4.75962 z m 2.52935,2.11917 V 173.2 h 1.88846 q 1.05959,0 1.52957,-0.11968 0.61525,-0.15382 1.01686,-0.52126 0.41016,-0.36744 0.66652,-1.20485 0.25635,-0.84596 0.25635,-2.29862 0,-1.45266 -0.25635,-2.23027 -0.25636,-0.77761 -0.71779,-1.21341 -0.46143,-0.4358 -1.17067,-0.5896 -0.5298,-0.11968 -2.07646,-0.11968 z"
       id="text7"
       inkscape:label="Robotics Ltd"
       aria-label="ROBOTICS LTD" />
    <path
       d="m 169.19437,174.56093 -1.06789,0.25494 v -0.22072 l 0.73353,-0.16097 -0.73353,-0.19523 v -0.25641 l 0.74592,-0.1872 -0.74592,-0.16389 v -0.21708 l 1.06789,0.25932 v 0.22872 l -0.79837,0.21271 0.79837,0.21197 z m 0,-2.13723 v 0.23455 l -0.24257,0.0933 v 0.42686 l 0.24257,0.0882 v 0.22872 l -1.06789,-0.41593 v -0.228 z m -0.4225,0.39699 -0.39626,0.14715 0.39626,0.14423 z m 0.4225,-0.51718 h -1.05914 v -0.21562 h 0.87921 v -0.53613 h 0.17993 z"
       id="text8"
       style="font-weight:bold;font-size:24px;line-height:1.25;font-family:Arial;-inkscape-font-specification:'Arial, Bold';letter-spacing:0px;word-spacing:0px;baseline-shift:baseline;white-space:pre;fill:#ffffff;stroke:#ffffff;stroke-width:0.0621596"
       inkscape:label="WAL"
       aria-label="WAL" />
  </g>
  <metadata
     id="metadata8">
    <rdf:RDF>
      <cc:Work
         rdf:about="">
        <dc:title>Letterhead with WAL in R</dc:title>
      </cc:Work>
    </rdf:RDF>
  </metadata>
</svg>
